<?xml version="1.0" ?><!DOCTYPE svg  PUBLIC '-//W3C//DTD SVG 1.1//EN'  'http://www.w3.org/Graphics/SVG/1.1/DTD/svg11.dtd'><svg height="512px" style="shape-rendering:geometricPrecision; text-rendering:geometricPrecision; image-rendering:optimizeQuality; fill-rule:evenodd; clip-rule:evenodd" version="1.1" viewBox="0 0 512 512" width="512px" xml:space="preserve" xmlns="http://www.w3.org/2000/svg" xmlns:xlink="http://www.w3.org/1999/xlink"><defs><style type="text/css">
   <![CDATA[
    .fil9 {fill:#FEFEFE}
    .fil0 {fill:#305994}
    .fil2 {fill:#354D80}
    .fil1 {fill:#446AA4}
    .fil6 {fill:#5278B5}
    .fil8 {fill:#6188C5}
    .fil5 {fill:#769ED2}
    .fil3 {fill:#8FB5E0}
    .fil7 {fill:#90A9D7}
    .fil4 {fill:#B4D1ED}
   ]]>
  </style></defs><g id="Layer_x0020_1"><g id="_420829328"><g><path class="fil0" d="M324 436c95,-63 143,-95 143,-95 -94,-51 -141,-76 -141,-76 -1,114 -2,171 -2,171z"/><path class="fil1" d="M326 265c-95,63 -143,95 -143,95 94,51 141,76 141,76 1,-114 2,-171 2,-171z"/><path class="fil2" d="M466 341c-95,63 -143,95 -143,95 94,51 141,76 141,76 1,-114 2,-171 2,-171z"/><path class="fil3" d="M183 360c95,-63 143,-95 143,-95 -94,-51 -141,-76 -141,-76 -1,114 -2,171 -2,171z"/><path class="fil4" d="M185 189c-95,63 -143,95 -143,95 94,51 141,76 141,76 1,-114 2,-171 2,-171z"/><path class="fil5" d="M328 94c-95,63 -143,95 -143,95 94,51 141,76 141,76 1,-114 2,-171 2,-171z"/><path class="fil6" d="M468 170c-95,63 -143,95 -143,95 94,51 141,76 141,76 1,-114 2,-171 2,-171z"/><path class="fil7" d="M470 0c-95,63 -143,95 -143,95 94,51 141,76 141,76 1,-114 2,-171 2,-171z"/><path class="fil8" d="M326 266c95,-63 143,-95 143,-95 -94,-51 -141,-76 -141,-76 -1,114 -2,171 -2,171z"/></g><path class="fil9" d="M377 266l-39 0 0 106 -45 0 0 -106 -22 0 0 -35 22 0 0 -23c0,-31 13,-49 49,-49l41 0 0 38 -34 0c-10,0 -11,5 -11,15l0 19 45 0 -6 35z"/></g></g></svg>