<?xml version="1.0" ?><!DOCTYPE svg  PUBLIC '-//W3C//DTD SVG 1.1//EN'  'http://www.w3.org/Graphics/SVG/1.1/DTD/svg11.dtd'><svg height="512px" style="shape-rendering:geometricPrecision; text-rendering:geometricPrecision; image-rendering:optimizeQuality; fill-rule:evenodd; clip-rule:evenodd" version="1.1" viewBox="0 0 512 512" width="512px" xml:space="preserve" xmlns="http://www.w3.org/2000/svg" xmlns:xlink="http://www.w3.org/1999/xlink"><defs><style type="text/css">
   <![CDATA[
    .fil9 {fill:#FEFEFE}
    .fil3 {fill:#2C79AB}
    .fil1 {fill:#3D89BD}
    .fil6 {fill:#4195CC}
    .fil8 {fill:#4FA6DC}
    .fil2 {fill:#5094BF}
    .fil7 {fill:#62B6E6}
    .fil5 {fill:#69BAE8}
    .fil4 {fill:#78C3EC}
    .fil0 {fill:#96CBEE}
   ]]>
  </style></defs><g id="Layer_x0020_1"><g id="_420830096"><path class="fil0" d="M185 189c-95,63 -143,95 -143,95 94,51 141,76 141,76 1,-114 2,-171 2,-171z"/><path class="fil1" d="M324 436c95,-63 143,-95 143,-95 -94,-51 -141,-76 -141,-76 -1,114 -2,171 -2,171z"/><path class="fil2" d="M326 265c-95,63 -143,95 -143,95 94,51 141,76 141,76 1,-114 2,-171 2,-171z"/><path class="fil3" d="M466 341c-95,63 -143,95 -143,95 94,51 141,76 141,76 1,-114 2,-171 2,-171z"/><path class="fil4" d="M183 360c95,-63 143,-95 143,-95 -94,-51 -141,-76 -141,-76 -1,114 -2,171 -2,171z"/><path class="fil5" d="M328 94c-95,63 -143,95 -143,95 94,51 141,76 141,76 1,-114 2,-171 2,-171z"/><path class="fil6" d="M468 170c-95,63 -143,95 -143,95 94,51 141,76 141,76 1,-114 2,-171 2,-171z"/><path class="fil7" d="M470 0c-95,63 -143,95 -143,95 94,51 141,76 141,76 1,-114 2,-171 2,-171z"/><path class="fil8" d="M326 266c95,-63 143,-95 143,-95 -94,-51 -141,-76 -141,-76 -1,114 -2,171 -2,171z"/><path class="fil9" d="M404 241c0,2 0,3 -1,5 -7,51 -54,104 -124,94 -21,-3 -40,-12 -55,-26 3,1 6,1 9,2 18,3 35,-1 49,-10 -16,-3 -29,-16 -31,-32 2,1 5,1 7,2 3,1 7,1 10,0 -17,-6 -28,-24 -25,-42 0,0 0,0 0,0 5,4 10,6 16,7 -9,-8 -14,-21 -12,-34 1,-7 4,-13 8,-19 15,26 41,45 72,52 0,-3 0,-6 0,-9 3,-21 23,-36 43,-33 11,2 20,8 26,16 9,0 17,-2 25,-6 -4,9 -11,15 -20,19 8,0 15,-1 23,-3 -6,7 -14,13 -22,17z"/></g></g></svg>